<svg xmlns="http://www.w3.org/2000/svg" width="105" height="40" viewBox="0 0 105 40"><title>logo-ygex</title><g id="contents"><path d="M101.857,36.464v0a.462.462,0,0,0,.324-.482.5.5,0,0,0-.564-.5h-.865v1.9H101v-.811h.6c.453,0,.247.661.376.811h.273C102.04,37.115,102.288,36.547,101.857,36.464Zm-.351-.11H101v-.66h.608a.3.3,0,0,1,.328.325C101.935,36.292,101.739,36.354,101.506,36.354Zm-.047-1.494A1.569,1.569,0,1,0,103,36.429,1.561,1.561,0,0,0,101.459,34.86Zm0,2.939a1.371,1.371,0,1,1,1.345-1.37A1.363,1.363,0,0,1,101.459,37.8ZM27.007,10.188,20.285,2H7L20.354,18.25ZM78.16,10.2l6.653,8.063L98.174,2H84.888ZM62.7,29.03H57.11V24.417H61.05v-8.9l-16.858,0v8.9h4.087V29.03h-5.8l-5.986-7.291-6.629,8.035L36.649,38H68.525L75.3,29.786l-6.629-8.034ZM36.649,2,7,38H20.2L42.479,10.97H62.7L84.957,38H98.174L68.525,2Z"/></g></svg>